<svg xmlns="http://www.w3.org/2000/svg" viewBox="0 0 1000 600"><defs><style>.cls-1{isolation:isolate;}.cls-2{fill:#9370fc;}.cls-3{fill:#ae94fd;}.cls-4{fill:#90ffcc;}.cls-5,.cls-6,.cls-8{fill:#32334e;}.cls-6{font-size:20.7024px;}.cls-17,.cls-6,.cls-7,.cls-8{font-family:GTWalsheimPro-Bold, GT Walsheim Pro;font-weight:700;}.cls-7,.cls-8{font-size:20.8969px;}.cls-13,.cls-17,.cls-7{fill:#fcf2f5;}.cls-19,.cls-9{fill:none;stroke-miterlimit:10;stroke-width:3px;}.cls-9{stroke:#90ffcc;}.cls-10{letter-spacing:-0.02em;}.cls-11{letter-spacing:0.008em;}.cls-12{letter-spacing:0.003em;}.cls-14{letter-spacing:0.002em;}.cls-15{letter-spacing:-0.007em;}.cls-16{letter-spacing:0em;}.cls-17{font-size:47.0179px;}.cls-18{fill:#ccc;mix-blend-mode:multiply;}.cls-19{stroke:#fcf2f5;}</style></defs><g class="cls-1"><g id="Layer_1" data-name="Layer 1"><path class="cls-2" d="M514.78,224.4571V450.0648L480.2476,484.179a180.8535,180.8535,0,0,1-74.9152,35.3287,189.3588,189.3588,0,0,1-190.2659-73.2435C192.4064,415.0757,180.43,377.37,180.43,337.261s11.9765-77.8016,34.6366-109.0032a189.3588,189.3588,0,0,1,190.2659-73.2435c37.7319,7.9538,71.8852,27.8842,98.79,57.6492Z"/><path class="cls-3" d="M480.1551,247.0684l-6.286-7.0659c-28.047-31.0366-65.7771-48.13-106.2393-48.13a152.6787,152.6787,0,0,0-91.7464,31.5417c-35.2609,27.33-54.6795,67.76-54.6795,113.8435S240.6225,423.7709,275.8821,451.1a152.6816,152.6816,0,0,0,91.7465,31.5443h.0025c40.2882,0,77.873-16.9518,105.8892-47.7435.1147-.1261,16.8542-21.2835,16.9686-21.41l24.2926,36.57-.0022-148.4216Z"/><path class="cls-4" d="M514.7815,450.0605,467.5044,378.89l-23.6539,26.98c-20.38,22.546-47.22,35.31-76.2149,35.31a110.43,110.43,0,0,1-66.346-22.8521c-24.903-19.3013-38.6166-48.0931-38.6166-81.07s13.7136-61.7685,38.6166-81.07a110.4256,110.4256,0,0,1,66.3447-22.8509c29,0,55.0992,11.9178,75.4757,34.4663l1.7346,1.9183,69.9369,103.7239"/><path class="cls-5" d="M442.2642,340.5221l-31.3114-44.67c-12.4023-13.7227-27.354-20.6814-44.4384-20.6814-24.4063,0-63.1268,16.856-63.1268,62.0872s38.72,62.0859,63.1281,62.0872c17.0845,0,32.0349-6.96,44.4385-20.6827Z"/><path class="cls-2" d="M549.3028,190.2971a194.76,194.76,0,0,0-23.8616,22.3205l-10.6574,11.7937V373.406l53.8225-196.47A186.2862,186.2862,0,0,0,549.3028,190.2971Z"/><path class="cls-2" d="M814.497,228.253A189.3677,189.3677,0,0,0,624.2181,155.01a179.2188,179.2188,0,0,0-55.6118,21.9679l-53.8225,196.47V450.06l10.6574,11.7937c26.8916,29.765,61.045,49.6954,98.7769,57.649a189.3269,189.3269,0,0,0,190.2789-73.23c22.66-31.2018,34.6365-68.9074,34.6365-109.0165S837.157,259.4548,814.497,228.253Z"/><text class="cls-6" transform="matrix(0.4575, -0.8998, 0.8914, 0.4532, 256.4223, 290.2423)">O</text><text class="cls-6" transform="matrix(0.5569, -0.8419, 0.8341, 0.5517, 264.0141, 275.7765)">r</text><text class="cls-6" transform="translate(268.2651 269.1046) rotate(-51.1061) scale(1.0094 1)">g</text><text class="cls-6" transform="translate(276.1811 259.2594) rotate(-44.4871) scale(1.0094 1)">a</text><text class="cls-6" transform="matrix(0.7937, -0.6236, 0.6178, 0.7863, 285.2128, 250.3795)">n</text><text class="cls-6" transform="translate(295.038 242.8165) rotate(-33.7438) scale(1.0094 1)">i</text><text class="cls-6" transform="translate(299.665 239.6383) rotate(-30.0828) scale(1.0094 1)">z</text><text class="cls-6" transform="translate(307.7426 234.8892) rotate(-25.3565) scale(1.0094 1)">e</text><text class="cls-7" transform="matrix(0.4918, -0.8707, 0.8707, 0.4918, 222.8609, 260.8037)">A</text><text class="cls-7" transform="translate(229.2921 249.4107) rotate(-55.5806)">u</text><text class="cls-7" transform="translate(236.2276 239.2515) rotate(-50.6187)">g</text><text class="cls-7" transform="translate(244.1388 229.3589) rotate(-44.5979)">m</text><text class="cls-7" transform="matrix(0.7775, -0.6289, 0.6289, 0.7775, 257.2188, 216.6787)">e</text><text class="cls-7" transform="translate(266.1182 209.4463) rotate(-34.5492)">n</text><text class="cls-7" transform="translate(276.2569 202.5366) rotate(-30.9423)">t</text><text class="cls-8" transform="translate(288.8043 317.3487) rotate(-68.2188)">M</text><text class="cls-8" transform="matrix(0.5425, -0.8401, 0.8401, 0.5425, 295.5953, 300.9717)">o</text><text class="cls-8" transform="translate(301.9713 290.9844) rotate(-47.8517)">d</text><text class="cls-8" transform="translate(310.3726 281.7251) rotate(-39.1195)">e</text><text class="cls-8" transform="matrix(0.8456, -0.5339, 0.5339, 0.8456, 319.2027, 274.6411)">r</text><text class="cls-8" transform="matrix(0.9028, -0.4301, 0.4301, 0.9028, 325.7579, 270.3018)">a</text><text class="cls-8" transform="translate(337.1876 264.9849) rotate(-18.773)">t</text><text class="cls-8" transform="translate(344.5972 262.3399) rotate(-12.415)">e</text><path class="cls-4" d="M741.7141,381.4024A59.3459,59.3459,0,0,0,698.54,309.4279a47.7753,47.7753,0,0,0-57.946,34.7584,38.5164,38.5164,0,0,0,28.0228,46.7182,31.1629,31.1629,0,0,0,37.74-22.6391,25.23,25.23,0,0,0-18.3294-30.5545A20.4912,20.4912,0,0,0,663.22,352.594a16.6869,16.6869,0,0,0,12.1231,20.2094,1.4975,1.4975,0,1,0,.727-2.9055A13.6831,13.6831,0,0,1,666.125,353.32,17.4777,17.4777,0,0,1,687.3,340.6189a22.2322,22.2322,0,0,1,16.15,26.9233A28.1582,28.1582,0,0,1,669.34,388a35.5259,35.5259,0,0,1-25.8443-43.0845,44.7857,44.7857,0,0,1,54.3147-32.5812,56.3532,56.3532,0,0,1,40.994,68.3434,70.8139,70.8139,0,0,1-85.8857,51.5164,88.7839,88.7839,0,0,1-54.9551-40.7172l-.2576-.43a86.7459,86.7459,0,0,1-9.4625-66.6508c13.9737-53.3173,65.5833-89.383,120.0485-83.84a1.5011,1.5011,0,0,0,1.6415-1.3392,1.5091,1.5091,0,0,0-1.3418-1.6479,112.42,112.42,0,0,0-11.3055-.5714c-51.6082,0-98.5662,35.6155-111.9392,86.6409a89.7118,89.7118,0,0,0,9.775,68.9262l.2678.4464A91.7539,91.7539,0,0,0,652.1933,435.1a73.8071,73.8071,0,0,0,89.5208-53.6975Z"/><polyline class="cls-9" points="687.183 261.565 710.43 238.736 688.147 216.073"/><rect class="cls-2" x="606.2822" y="324.6306" width="122.9024" height="51.9956" rx="15.4015"/><text class="cls-7" transform="translate(611.0816 344.71)">Kn<tspan class="cls-10" x="26.4971" y="0">o</tspan><tspan x="38.3037" y="0">wl</tspan><tspan class="cls-11" x="61.123" y="0">e</tspan><tspan x="73.0342" y="0">dge</tspan><tspan x="31.2832" y="25.0762">Ba</tspan><tspan class="cls-12" x="57.3408" y="25.0762">s</tspan><tspan x="67.8311" y="25.0762">e</tspan></text><path class="cls-13" d="M499.6073,150.171l14.3864,14.3856a1.1412,1.1412,0,0,0,1.5765,0l14.3856-14.3856-1.5765-1.5764-12.4924,12.4915V124.3845h-2.2108v36.7024l-12.4915-12.4932Z"/><text class="cls-7" transform="translate(459.2594 79.0854)">M<tspan class="cls-14" x="18.3892" y="0">e</tspan><tspan x="30.1748" y="0">ssaging</tspan><tspan x="5.4434" y="25.0762">Pla</tspan><tspan class="cls-12" x="37.3735" y="25.0762">t</tspan><tspan class="cls-15" x="45.6694" y="25.0762">f</tspan><tspan class="cls-16" x="53.4849" y="25.0762">orms</tspan></text><text class="cls-17" transform="translate(341.6007 351.5537)">AI</text><path class="cls-18" d="M442.2642,340.5221l-30.1675,37.3348,68.16,105.5069a195.0054,195.0054,0,0,0,23.8709-22.3219l10.656-11.7908Z"/><line class="cls-19" x1="515.3822" y1="183.6683" x2="515.3822" y2="490.8482"/></g></g></svg>